HIERARCHY
ROOT Hips
{
	OFFSET 0.000000 100.481300 0.000000
	CHANNELS 6 Xposition Yposition Zposition Xrotation Yrotation Zrotation 
	JOINT Spine
	{
		OFFSET -0.279200 12.230698 -2.892100
		CHANNELS 3 Xrotation Yrotation Zrotation
		JOINT Spine1
		{
			OFFSET -0.232667 10.192268 -1.242267
			CHANNELS 3 Xrotation Yrotation Zrotation
			JOINT Spine1_split
			{
				OFFSET -0.232667 10.192268 -1.242267
				CHANNELS 3 Xrotation Yrotation Zrotation
				JOINT Spine2
				{
					OFFSET -0.232667 10.192268 -1.242267
					CHANNELS 3 Xrotation Yrotation Zrotation
					JOINT Neck
					{
						OFFSET -0.418800 17.814194 8.416900
						CHANNELS 3 Xrotation Yrotation Zrotation
						JOINT Head
						{
							OFFSET 0.000000 7.031097 3.806800
							CHANNELS 3 Xrotation Yrotation Zrotation
							JOINT HeadTop_End
							{
								OFFSET 0.000000 24.646606 12.978600
								CHANNELS 3 Xrotation Yrotation Zrotation
								End Site
								{
									OFFSET 0.000000 0.000000 0.000000
								}
							}
						}
					}
					JOINT LeftShoulder
					{
						OFFSET 8.476499 7.247704 -3.868750
						CHANNELS 3 Xrotation Yrotation Zrotation
						JOINT LeftShoulder_split
						{
							OFFSET 8.476499 7.247704 -3.868750
							CHANNELS 3 Xrotation Yrotation Zrotation
							JOINT LeftArm
							{
								OFFSET 9.308998 -2.777710 0.208600
								CHANNELS 3 Xrotation Yrotation Zrotation
								JOINT LeftForeArm
								{
									OFFSET 29.972298 0.000000 0.000000
									CHANNELS 3 Xrotation Yrotation Zrotation
									JOINT LeftHand
									{
										OFFSET 26.026505 0.000000 0.000000
										CHANNELS 3 Xrotation Yrotation Zrotation
										JOINT LeftHandThumb1
										{
											OFFSET 12.240501 -7.147949 9.207150
											CHANNELS 3 Xrotation Yrotation Zrotation
											JOINT LeftHandThumb2
											{
												OFFSET 4.138618 -2.389435 2.389433
												CHANNELS 3 Xrotation Yrotation Zrotation
												JOINT LeftHandThumb3
												{
													OFFSET 2.726913 -1.574387 1.574386
													CHANNELS 3 Xrotation Yrotation Zrotation
													JOINT LeftHandThumb4
													{
														OFFSET 3.941010 -2.275345 2.275342
														CHANNELS 3 Xrotation Yrotation Zrotation
														End Site
														{
															OFFSET 0.000000 0.000000 0.000000
														}
													}
												}
											}
										}
										JOINT LeftHandIndex1
										{
											OFFSET 24.424698 -1.985611 5.953459
											CHANNELS 3 Xrotation Yrotation Zrotation
											JOINT LeftHandIndex2
											{
												OFFSET 6.426697 0.000000 0.000000
												CHANNELS 3 Xrotation Yrotation Zrotation
												JOINT LeftHandIndex3
												{
													OFFSET 5.337898 0.000000 0.000000
													CHANNELS 3 Xrotation Yrotation Zrotation
													JOINT LeftHandIndex4
													{
														OFFSET 4.409401 0.000000 0.000000
														CHANNELS 3 Xrotation Yrotation Zrotation
														End Site
														{
															OFFSET 0.000000 0.000000 0.000000
														}
													}
												}
											}
										}
										JOINT LeftHandMiddle1
										{
											OFFSET 23.810104 0.000000 0.000000
											CHANNELS 3 Xrotation Yrotation Zrotation
											JOINT LeftHandMiddle2
											{
												OFFSET 7.176498 0.000000 0.000000
												CHANNELS 3 Xrotation Yrotation Zrotation
												JOINT LeftHandMiddle3
												{
													OFFSET 6.774902 0.000000 0.000000
													CHANNELS 3 Xrotation Yrotation Zrotation
													JOINT LeftHandMiddle4
													{
														OFFSET 5.403328 0.000000 0.000000
														CHANNELS 3 Xrotation Yrotation Zrotation
														End Site
														{
															OFFSET 0.000000 0.000000 0.000000
														}
													}
												}
											}
										}
										JOINT LeftHandRing1
										{
											OFFSET 22.908401 -0.839279 -6.020567
											CHANNELS 3 Xrotation Yrotation Zrotation
											JOINT LeftHandRing2
											{
												OFFSET 6.337502 0.000000 0.000000
												CHANNELS 3 Xrotation Yrotation Zrotation
												JOINT LeftHandRing3
												{
													OFFSET 5.779297 0.000000 0.000000
													CHANNELS 3 Xrotation Yrotation Zrotation
													JOINT LeftHandRing4
													{
														OFFSET 4.965698 0.000000 0.000000
														CHANNELS 3 Xrotation Yrotation Zrotation
														End Site
														{
															OFFSET 0.000000 0.000000 0.000000
														}
													}
												}
											}
										}
										JOINT LeftHandPinky1
										{
											OFFSET 20.037003 -1.530319 -10.950146
											CHANNELS 3 Xrotation Yrotation Zrotation
											JOINT LeftHandPinky2
											{
												OFFSET 5.254700 0.000000 0.000000
												CHANNELS 3 Xrotation Yrotation Zrotation
												JOINT LeftHandPinky3
												{
													OFFSET 4.810204 0.000000 0.000000
													CHANNELS 3 Xrotation Yrotation Zrotation
													JOINT LeftHandPinky4
													{
														OFFSET 3.647202 0.000000 0.000000
														CHANNELS 3 Xrotation Yrotation Zrotation
														End Site
														{
															OFFSET 0.000000 0.000000 0.000000
														}
													}
												}
											}
										}
									}
								}
							}
						}
					}
					JOINT RightShoulder
					{
						OFFSET -7.570500 7.247704 -3.868750
						CHANNELS 3 Xrotation Yrotation Zrotation
						JOINT RightShoulder_split
						{
							OFFSET -7.570500 7.247704 -3.868750
							CHANNELS 3 Xrotation Yrotation Zrotation
							JOINT RightArm
							{
								OFFSET -9.308998 -2.777710 0.208500
								CHANNELS 3 Xrotation Yrotation Zrotation
								JOINT RightForeArm
								{
									OFFSET -29.972300 0.000000 0.000000
									CHANNELS 3 Xrotation Yrotation Zrotation
									JOINT RightHand
									{
										OFFSET -26.026505 0.000000 0.000000
										CHANNELS 3 Xrotation Yrotation Zrotation
										JOINT RightHandThumb1
										{
											OFFSET -12.240601 -7.148026 9.207092
											CHANNELS 3 Xrotation Yrotation Zrotation
											JOINT RightHandThumb2
											{
												OFFSET -4.138618 -2.389435 2.389433
												CHANNELS 3 Xrotation Yrotation Zrotation
												JOINT RightHandThumb3
												{
													OFFSET -2.726974 -1.574417 1.574421
													CHANNELS 3 Xrotation Yrotation Zrotation
													JOINT RightHandThumb4
													{
														OFFSET -3.941010 -2.275345 2.275343
														CHANNELS 3 Xrotation Yrotation Zrotation
														End Site
														{
															OFFSET 0.000000 0.000000 0.000000
														}
													}
												}
											}
										}
										JOINT RightHandIndex1
										{
											OFFSET -24.424698 -1.985657 5.953444
											CHANNELS 3 Xrotation Yrotation Zrotation
											JOINT RightHandIndex2
											{
												OFFSET -6.426697 0.000000 0.000000
												CHANNELS 3 Xrotation Yrotation Zrotation
												JOINT RightHandIndex3
												{
													OFFSET -5.337898 0.000000 0.000000
													CHANNELS 3 Xrotation Yrotation Zrotation
													JOINT RightHandIndex4
													{
														OFFSET -4.409401 0.000000 0.000000
														CHANNELS 3 Xrotation Yrotation Zrotation
														End Site
														{
															OFFSET 0.000000 0.000000 0.000000
														}
													}
												}
											}
										}
										JOINT RightHandMiddle1
										{
											OFFSET -23.810097 0.000000 0.000000
											CHANNELS 3 Xrotation Yrotation Zrotation
											JOINT RightHandMiddle2
											{
												OFFSET -7.176498 0.000000 0.000000
												CHANNELS 3 Xrotation Yrotation Zrotation
												JOINT RightHandMiddle3
												{
													OFFSET -6.774902 0.000000 0.000000
													CHANNELS 3 Xrotation Yrotation Zrotation
													JOINT RightHandMiddle4
													{
														OFFSET -5.403328 0.000000 0.000000
														CHANNELS 3 Xrotation Yrotation Zrotation
														End Site
														{
															OFFSET 0.000000 0.000000 0.000000
														}
													}
												}
											}
										}
										JOINT RightHandRing1
										{
											OFFSET -22.908302 -0.839325 -6.020576
											CHANNELS 3 Xrotation Yrotation Zrotation
											JOINT RightHandRing2
											{
												OFFSET -6.337502 0.000000 0.000000
												CHANNELS 3 Xrotation Yrotation Zrotation
												JOINT RightHandRing3
												{
													OFFSET -5.779297 0.000000 0.000000
													CHANNELS 3 Xrotation Yrotation Zrotation
													JOINT RightHandRing4
													{
														OFFSET -4.965698 0.000000 0.000000
														CHANNELS 3 Xrotation Yrotation Zrotation
														End Site
														{
															OFFSET 0.000000 0.000000 0.000000
														}
													}
												}
											}
										}
										JOINT RightHandPinky1
										{
											OFFSET -20.037003 -1.530334 -10.950259
											CHANNELS 3 Xrotation Yrotation Zrotation
											JOINT RightHandPinky2
											{
												OFFSET -5.254700 0.000000 0.000000
												CHANNELS 3 Xrotation Yrotation Zrotation
												JOINT RightHandPinky3
												{
													OFFSET -4.810204 0.000000 0.000000
													CHANNELS 3 Xrotation Yrotation Zrotation
													JOINT RightHandPinky4
													{
														OFFSET -3.647202 0.000000 0.000000
														CHANNELS 3 Xrotation Yrotation Zrotation
														End Site
														{
															OFFSET 0.000000 0.000000 0.000000
														}
													}
												}
											}
										}
									}
								}
							}
						}
					}
				}
			}
		}
	}
	JOINT LeftUpLeg
	{
		OFFSET 15.427100 -6.655098 0.678600
		CHANNELS 3 Xrotation Yrotation Zrotation
		JOINT LeftLeg
		{
			OFFSET 4.081073 -39.591068 13.024000
			CHANNELS 3 Xrotation Yrotation Zrotation
			JOINT LeftFoot
			{
				OFFSET -4.081074 -37.707932 -15.979700
				CHANNELS 3 Xrotation Yrotation Zrotation
				JOINT LeftToeBase
				{
					OFFSET 5.346399 -15.068900 20.645000
					CHANNELS 3 Xrotation Yrotation Zrotation
					JOINT LeftToe_End
					{
						OFFSET 2.754700 0.931300 11.300900
						CHANNELS 3 Xrotation Yrotation Zrotation
						End Site
						{
							OFFSET 0.000000 0.000000 0.000000
						}
					}
				}
			}
		}
	}
	JOINT RightUpLeg
	{
		OFFSET -15.569500 -6.655098 0.678600
		CHANNELS 3 Xrotation Yrotation Zrotation
		JOINT RightLeg
		{
			OFFSET -4.081825 -39.591045 13.023800
			CHANNELS 3 Xrotation Yrotation Zrotation
			JOINT RightFoot
			{
				OFFSET 4.081824 -37.707954 -15.979600
				CHANNELS 3 Xrotation Yrotation Zrotation
				JOINT RightToeBase
				{
					OFFSET -5.346400 -15.068900 20.645000
					CHANNELS 3 Xrotation Yrotation Zrotation
					JOINT RightToe_End
					{
						OFFSET -2.754700 0.931300 11.300900
						CHANNELS 3 Xrotation Yrotation Zrotation
						End Site
						{
							OFFSET 0.000000 0.000000 0.000000
						}
					}
				}
			}
		}
	}
}
MOTION
Frames: 4
Frame Time: 0.016667
3.889507 10.637840 -0.460495 87.459923 0.099678 1.495696 3.817739 0.546248 -1.558710 0.793258 0.138199 -0.141419 0.000000 0.000000 0.000000 0.792541 0.141294 -0.141442 -5.136625 -13.863059 6.464559 -18.401156 -57.030976 -18.459187 0.000000 -0.000000 -0.000000 3.766312 -21.296506 -1.257002 0.000000 0.000000 0.000000 15.600403 -18.626722 -61.954447 0.000018 -18.654959 -0.000000 42.089046 7.016541 -15.751000 -1.540034 3.690176 6.142352 3.939051 7.948725 0.746812 -0.579467 1.574990 2.538717 -0.000000 0.000003 -0.000000 0.298626 2.009574 -16.903098 0.539674 2.676800 -22.793540 0.036388 0.708429 -5.880813 0.000002 -0.000001 -0.000001 0.298066 2.007734 -16.887103 0.540427 2.678579 -22.809562 0.036388 0.708409 -5.880824 -0.000002 0.000001 0.000001 0.298626 2.009574 -16.903098 0.539675 2.676803 -22.793543 0.036389 0.708422 -5.880824 -0.000001 -0.000001 -0.000000 1.465420 5.893256 -16.473122 0.545004 -1.382193 -23.265298 0.036396 0.708420 -5.880810 0.000001 0.000002 -0.000005 0.640286 15.700658 9.197082 0.000000 0.000000 0.000000 13.898616 -3.320480 53.523473 -0.000018 31.875311 0.000008 15.264791 -23.834171 10.590710 -1.849227 -3.581790 -6.586128 4.637222 -8.634111 -0.225392 -1.273768 0.137310 -2.094870 0.000000 0.000000 0.000002 0.480699 -2.544865 21.389441 1.003311 -3.603113 31.111300 0.099708 -1.175704 9.694893 -0.000002 -0.000002 0.000002 0.480700 -2.544864 21.389437 1.003311 -3.603116 31.111303 0.099705 -1.175701 9.694889 -0.000000 0.000000 -0.000002 0.480712 -2.544855 21.389437 1.003297 -3.603122 31.111297 0.099705 -1.175699 9.694895 0.000001 0.000001 -0.000001 0.480699 -2.544865 21.389437 1.003310 -3.603120 31.111303 0.099709 -1.175699 9.694894 0.000002 -0.000001 0.000001 -11.391072 6.545670 10.597948 16.966439 13.814613 3.055543 48.743286 25.905905 -19.041983 6.473194 1.462260 13.237399 -0.000000 -0.000001 -0.000000 -10.596750 -7.787174 -13.127168 17.870922 -15.719774 -3.035261 49.043555 -24.743854 27.889221 9.288627 -0.895407 -9.923552 0.000000 0.000000 0.000002 
3.889584 10.639374 -0.461227 87.450450 0.103311 1.494564 3.826247 0.543443 -1.556560 0.795024 0.137604 -0.141028 0.000000 0.000000 0.000000 0.794344 0.140705 -0.141053 -5.134278 -13.862905 6.460975 -18.393372 -57.036430 -18.452415 0.000000 0.000000 0.000000 3.774317 -21.342084 -1.254775 0.000000 0.000000 0.000000 15.591961 -18.591058 -61.965286 -0.000005 -18.641599 0.000002 42.085498 7.002018 -15.750920 -1.540035 3.690170 6.142352 3.939051 7.948699 0.746812 -0.579466 1.574991 2.538715 0.000000 0.000005 -0.000000 0.298630 2.009571 -16.903103 0.539665 2.676801 -22.793552 0.036386 0.708426 -5.880803 -0.000002 -0.000000 -0.000002 0.298068 2.007734 -16.887101 0.540418 2.678586 -22.809569 0.036393 0.708413 -5.880811 0.000001 -0.000002 0.000002 0.298630 2.009571 -16.903103 0.539665 2.676802 -22.793547 0.036384 0.708416 -5.880811 0.000001 -0.000001 0.000001 1.465417 5.893243 -16.473129 0.545016 -1.382154 -23.265284 0.036384 0.708386 -5.880813 -0.000001 0.000001 0.000001 0.641013 15.689952 9.189850 0.000000 0.000000 0.000000 13.871891 -3.307254 53.531550 -0.000006 31.852092 0.000007 15.245611 -23.874493 10.516406 -1.849251 -3.581807 -6.586150 4.637218 -8.634117 -0.225387 -1.273756 0.137298 -2.094875 -0.000000 0.000000 -0.000001 0.480700 -2.544880 21.389417 1.003306 -3.603122 31.111303 0.099721 -1.175690 9.694899 0.000003 0.000000 -0.000001 0.480700 -2.544880 21.389415 1.003303 -3.603125 31.111300 0.099714 -1.175696 9.694898 0.000000 0.000002 0.000002 0.480693 -2.544885 21.389412 1.003315 -3.603124 31.111300 0.099722 -1.175690 9.694902 -0.000001 -0.000001 0.000001 0.480700 -2.544880 21.389415 1.003304 -3.603128 31.111303 0.099720 -1.175686 9.694899 0.000002 0.000003 -0.000001 -11.382481 6.551285 10.601752 16.970672 13.825093 3.058253 48.738738 25.912998 -19.062518 6.476273 1.459673 13.224366 -0.000004 -0.000003 0.000003 -10.591907 -7.789329 -13.127720 17.872472 -15.712794 -3.028413 49.049347 -24.746122 27.869352 9.277963 -0.896381 -9.930597 0.000002 0.000000 0.000002 
3.888175 10.641823 -0.462708 87.458120 0.107962 1.499893 3.816649 0.539608 -1.558528 0.792723 0.136766 -0.140974 0.000000 0.000000 0.000000 0.792047 0.139859 -0.141001 -5.125197 -13.862457 6.457386 -18.396665 -57.041679 -18.453984 0.000000 -0.000000 -0.000000 3.780976 -21.376643 -1.256570 0.000000 0.000000 0.000000 15.556888 -18.576989 -61.979691 -0.000004 -18.573175 0.000004 42.065206 6.975410 -15.756061 -1.540034 3.690165 6.142353 3.939051 7.948732 0.746812 -0.579466 1.574995 2.538716 -0.000000 -0.000002 -0.000001 0.298627 2.009583 -16.903110 0.539667 2.676787 -22.793555 0.036388 0.708429 -5.880812 0.000000 -0.000001 -0.000003 0.298069 2.007738 -16.887103 0.540416 2.678560 -22.809577 0.036384 0.708412 -5.880818 0.000002 0.000001 0.000001 0.298627 2.009583 -16.903108 0.539668 2.676788 -22.793557 0.036391 0.708422 -5.880815 0.000003 -0.000001 0.000000 1.465419 5.893255 -16.473129 0.545005 -1.382191 -23.265310 0.036387 0.708415 -5.880815 -0.000001 0.000002 -0.000003 0.640458 15.698713 9.195480 0.000000 0.000000 0.000000 13.865615 -3.329065 53.534924 0.000016 31.844032 0.000007 15.261221 -23.895898 10.436523 -1.849247 -3.581793 -6.586142 4.637198 -8.634119 -0.225413 -1.273777 0.137308 -2.094867 0.000002 0.000001 0.000001 0.480681 -2.544882 21.389405 1.003311 -3.603113 31.111314 0.099703 -1.175701 9.694890 0.000001 0.000002 -0.000000 0.480682 -2.544881 21.389405 1.003309 -3.603116 31.111314 0.099708 -1.175713 9.694896 0.000001 -0.000001 -0.000001 0.480681 -2.544882 21.389402 1.003312 -3.603117 31.111310 0.099707 -1.175707 9.694898 0.000001 0.000003 -0.000002 0.480681 -2.544882 21.389405 1.003310 -3.603119 31.111314 0.099707 -1.175702 9.694899 0.000001 0.000001 0.000002 -11.388227 6.546541 10.592180 16.970681 13.836753 3.073262 48.743884 25.923607 -19.107249 6.484352 1.456813 13.209648 -0.000000 -0.000003 -0.000000 -10.602714 -7.791082 -13.135967 17.881893 -15.717452 -3.028186 49.047438 -24.742417 27.889155 9.296406 -0.894532 -9.918331 0.000001 0.000000 0.000001 
3.886060 10.644829 -0.464996 87.469499 0.110357 1.506849 3.805044 0.536880 -1.560920 0.789986 0.136171 -0.140839 0.000000 0.000000 0.000000 0.789274 0.139252 -0.140869 -5.121379 -13.861863 6.453984 -18.401158 -57.042212 -18.461747 -0.000000 0.000003 -0.000000 3.780667 -21.372237 -1.259641 0.000000 0.000000 0.000000 15.494902 -18.603294 -61.991753 0.000007 -18.436583 0.000004 42.055575 6.923394 -15.795205 -1.540036 3.690171 6.142352 3.939051 7.948708 0.746812 -0.579467 1.575000 2.538716 0.000000 -0.000003 -0.000000 0.298624 2.009564 -16.903110 0.539666 2.676806 -22.793547 0.036388 0.708417 -5.880823 -0.000002 0.000000 -0.000004 0.298066 2.007728 -16.887105 0.540424 2.678566 -22.809552 0.036390 0.708415 -5.880827 0.000001 -0.000001 0.000002 0.298624 2.009564 -16.903108 0.539666 2.676809 -22.793548 0.036392 0.708421 -5.880822 0.000001 -0.000000 -0.000000 1.465420 5.893239 -16.473132 0.545009 -1.382188 -23.265298 0.036386 0.708429 -5.880813 0.000001 0.000001 0.000001 0.640988 15.712335 9.191115 0.000000 0.000000 0.000000 13.846816 -3.359451 53.548823 -0.000026 31.824478 0.000020 15.286110 -23.918035 10.367426 -1.849255 -3.581802 -6.586141 4.637210 -8.634112 -0.225390 -1.273771 0.137317 -2.094872 0.000001 -0.000003 -0.000002 0.480697 -2.544864 21.389427 1.003295 -3.603107 31.111310 0.099704 -1.175698 9.694887 -0.000004 0.000002 -0.000000 0.480698 -2.544864 21.389426 1.003300 -3.603110 31.111307 0.099694 -1.175710 9.694876 -0.000000 -0.000003 0.000002 0.480683 -2.544869 21.389417 1.003313 -3.603111 31.111310 0.099698 -1.175703 9.694892 0.000001 0.000001 -0.000001 0.480697 -2.544864 21.389426 1.003301 -3.603113 31.111310 0.099701 -1.175696 9.694890 0.000002 -0.000001 -0.000001 -11.400625 6.537481 10.578745 16.969931 13.838647 3.086714 48.752032 25.931360 -19.131387 6.488607 1.455975 13.205056 -0.000001 -0.000001 0.000003 -10.612249 -7.792113 -13.143613 17.891889 -15.735627 -3.038408 49.038812 -24.733647 27.941242 9.338919 -0.890170 -9.888475 -0.000003 -0.000002 -0.000000 
